<?xml version="1.0" encoding="UTF-8"?>
<svg xmlns="http://www.w3.org/2000/svg" xmlns:xlink="http://www.w3.org/1999/xlink" width="640px" height="640px" viewBox="0 0 640 640" version="1.1">
<g id="surface1">
<path style=" stroke:none;fill-rule:nonzero;fill:rgb(16.862746%,24.313726%,30.19608%);fill-opacity:1;" d="M 161.683594 69.089844 C 69.050781 131.816406 60.632812 139.089844 69.894531 154.546875 C 78.316406 170 74.949219 177.273438 46.316406 210 L 12.632812 247.273438 L 30.316406 261.816406 L 48 277.273438 L 24.421875 322.726562 L 0.84375 369.089844 L 112 442.726562 C 172.632812 482.726562 239.15625 524.546875 259.367188 535.453125 L 294.738281 554.546875 L 318.316406 536.363281 C 338.527344 520 352 518.183594 417.683594 520 L 492.632812 522.726562 L 454.738281 544.546875 C 425.261719 561.816406 400 568.183594 344.421875 570.910156 C 261.894531 575.453125 240.84375 567.273438 144.84375 490.910156 C 113.683594 466.363281 87.578125 448.183594 85.894531 450 C 78.316406 458.183594 113.683594 510.910156 151.578125 548.183594 C 202.105469 597.273438 256.84375 627.273438 291.367188 626.363281 C 305.683594 625.453125 309.894531 623.636719 301.472656 620.910156 C 277.894531 614.546875 283.789062 600 309.894531 599.089844 C 334.316406 599.089844 389.050781 593.636719 416.84375 588.183594 C 443.789062 583.636719 506.105469 534.546875 501.894531 521.816406 C 499.367188 515.453125 504.421875 505.453125 512 498.183594 C 525.472656 487.273438 525.472656 488.183594 513.683594 504.546875 C 503.578125 519.089844 505.261719 519.089844 522.949219 501.816406 C 543.15625 482.726562 545.683594 481.816406 556.632812 497.273438 C 564.210938 507.273438 565.050781 510 557.472656 505.453125 C 551.578125 501.816406 544.84375 504.546875 542.316406 512.726562 C 539.789062 520.910156 532.210938 527.273438 525.472656 527.273438 C 518.738281 527.273438 513.683594 531.816406 513.683594 537.273438 C 513.683594 541.816406 517.894531 543.636719 523.789062 540 C 529.683594 535.453125 530.527344 537.273438 527.15625 544.546875 C 522.949219 550.910156 515.367188 553.636719 509.472656 550.910156 C 503.578125 549.089844 496 552.726562 493.472656 560 C 490.949219 567.273438 480.84375 572.726562 471.578125 572.726562 C 462.316406 572.726562 454.738281 575.453125 454.738281 579.089844 C 454.738281 583.636719 442.949219 593.636719 428.632812 601.816406 C 415.15625 610.910156 405.894531 613.636719 408.421875 609.089844 C 411.789062 603.636719 403.367188 605.453125 389.894531 610.910156 L 366.316406 622.726562 L 394.105469 625.453125 C 457.261719 631.816406 560.84375 550.910156 602.949219 461.816406 C 629.894531 405.453125 640 293.636719 624 230 C 610.527344 176.363281 566.738281 110.910156 517.894531 70.910156 C 469.050781 30.910156 378.949219 -2.726562 331.789062 1.816406 L 298.949219 4.546875 L 342.738281 20 C 398.316406 39.089844 415.15625 49.089844 472.421875 96.363281 C 535.578125 149.089844 571.789062 210 581.050781 283.636719 C 589.472656 345.453125 586.105469 361.816406 573.472656 324.546875 C 569.261719 311.816406 560.84375 299.089844 556.632812 295.453125 C 549.894531 291.816406 549.894531 297.273438 555.789062 313.636719 C 568.421875 350 565.894531 394.546875 547.367188 440 C 538.949219 462.726562 529.683594 481.816406 528.84375 481.816406 C 527.15625 481.816406 528 423.636719 528.84375 351.816406 L 532.210938 221.816406 L 493.472656 183.636719 L 454.738281 145.453125 L 208.84375 145.453125 L 212.210938 281.816406 L 214.738281 418.183594 L 175.15625 325.453125 C 153.261719 273.636719 126.316406 211.816406 115.367188 186.363281 L 95.15625 141.816406 L 176 88.183594 C 250.105469 40 256.84375 36.363281 266.949219 50.910156 C 276.210938 65.453125 271.15625 70 218.949219 94.546875 C 186.949219 110 160 128.183594 160 133.636719 C 160 150.910156 173.472656 148.183594 269.472656 105.453125 L 357.894531 66.363281 L 369.683594 90 C 381.472656 112.726562 394.105469 127.273438 405.894531 127.273438 C 408.421875 127.273438 403.367188 106.363281 393.261719 80.910156 C 373.894531 31.816406 374.738281 31.816406 314.105469 50.910156 C 299.789062 55.453125 292.210938 50 279.578125 28.183594 L 263.578125 0 Z M 538.949219 121.816406 L 560 149.089844 L 533.894531 126.363281 C 519.578125 114.546875 509.472656 100.910156 511.15625 97.273438 C 513.683594 92.726562 516.210938 90.910156 517.050781 92.726562 C 517.050781 94.546875 527.15625 107.273438 538.949219 121.816406 Z M 576.84375 172.726562 C 585.261719 182.726562 588.632812 190.910156 584.421875 190.910156 C 580.210938 190.910156 571.789062 182.726562 565.894531 172.726562 C 560 162.726562 556.632812 154.546875 558.316406 154.546875 C 560 154.546875 568.421875 162.726562 576.84375 172.726562 Z M 429.472656 186.363281 C 429.472656 218.183594 453.894531 245.453125 481.683594 245.453125 L 505.261719 245.453125 L 505.261719 490.910156 L 239.15625 490.910156 L 236.632812 327.273438 L 234.949219 163.636719 L 429.472656 163.636719 Z M 475.789062 200 C 490.949219 217.273438 490.105469 218.183594 473.261719 218.183594 C 460.632812 218.183594 454.738281 212.726562 454.738281 200 C 454.738281 190 456.421875 181.816406 457.261719 181.816406 C 458.949219 181.816406 467.367188 190 475.789062 200 Z M 143.15625 305.453125 C 143.15625 308.183594 156.632812 335.453125 173.472656 366.363281 L 202.949219 422.726562 L 123.789062 331.816406 L 43.789062 240.910156 L 65.683594 216.363281 L 86.738281 190.910156 L 115.367188 245.453125 C 130.527344 275.453125 143.15625 302.726562 143.15625 305.453125 Z M 600.421875 220 C 608 248.183594 602.105469 250 591.15625 222.726562 C 586.105469 210 584.421875 200 588.632812 200 C 592.84375 200 597.894531 209.089844 600.421875 220 Z M 138.105469 373.636719 C 176.84375 414.546875 210.527344 455.453125 213.050781 464.546875 C 215.578125 474.546875 216.421875 481.816406 214.738281 481.816406 C 211.367188 481.816406 41.261719 365.453125 35.367188 360 C 32 356.363281 59.789062 300 64.84375 300 C 65.683594 300 98.527344 333.636719 138.105469 373.636719 Z M 614.738281 336.363281 C 614.738281 346.363281 611.367188 354.546875 606.316406 354.546875 C 602.105469 354.546875 597.894531 359.089844 597.894531 364.546875 C 597.894531 370 602.949219 370.910156 608.84375 366.363281 C 613.894531 362.726562 612.210938 371.816406 602.949219 385.453125 C 594.527344 400 592 408.183594 597.894531 404.546875 C 605.472656 399.089844 605.472656 401.816406 598.738281 417.273438 C 592.84375 427.273438 591.15625 436.363281 593.683594 436.363281 C 596.210938 436.363281 591.15625 445.453125 581.894531 456.363281 C 572.632812 466.363281 566.738281 479.089844 570.105469 484.546875 C 572.632812 489.089844 570.105469 491.816406 564.210938 489.089844 C 557.472656 487.273438 550.738281 480 549.050781 472.726562 C 546.527344 466.363281 549.050781 463.636719 554.949219 467.273438 C 560 470.910156 565.050781 469.089844 565.050781 464.546875 C 566.738281 450.910156 570.105469 437.273438 572.632812 433.636719 C 573.472656 432.726562 576 421.816406 576.84375 409.089844 C 581.050781 370.910156 584.421875 360 596.210938 347.273438 C 602.105469 340 604.632812 330.910156 602.105469 326.363281 C 598.738281 321.816406 601.261719 318.183594 605.472656 318.183594 C 610.527344 318.183594 614.738281 326.363281 614.738281 336.363281 Z M 301.472656 515.453125 C 293.050781 517.273438 279.578125 517.273438 272 515.453125 C 263.578125 512.726562 270.316406 510.910156 286.316406 510.910156 C 302.316406 510.910156 309.050781 512.726562 301.472656 515.453125 Z M 261.050781 596.363281 C 261.050781 598.183594 253.472656 596.363281 244.210938 590.910156 C 234.949219 585.453125 227.367188 579.089844 227.367188 576.363281 C 227.367188 574.546875 234.949219 576.363281 244.210938 581.816406 C 253.472656 587.273438 261.050781 593.636719 261.050781 596.363281 Z M 261.050781 596.363281 "/>
<path style=" stroke:none;fill-rule:nonzero;fill:rgb(16.862746%,24.313726%,30.19608%);fill-opacity:1;" d="M 269.472656 286.363281 C 269.472656 298.183594 284.632812 300 372.210938 298.183594 C 444.632812 296.363281 475.789062 291.816406 478.316406 283.636719 C 480.84375 275.453125 456.421875 272.726562 375.578125 272.726562 C 286.316406 272.726562 269.472656 274.546875 269.472656 286.363281 Z M 269.472656 286.363281 "/>
<path style=" stroke:none;fill-rule:nonzero;fill:rgb(16.862746%,24.313726%,30.19608%);fill-opacity:1;" d="M 272 330 C 263.578125 345.453125 281.261719 348.183594 377.261719 347.273438 C 442.105469 346.363281 475.789062 342.726562 475.789062 336.363281 C 475.789062 324.546875 278.738281 318.183594 272 330 Z M 272 330 "/>
<path style=" stroke:none;fill-rule:nonzero;fill:rgb(16.862746%,24.313726%,30.19608%);fill-opacity:1;" d="M 269.472656 386.363281 C 269.472656 398.183594 286.316406 400 375.578125 400 C 456.421875 400 480.84375 397.273438 478.316406 388.183594 C 475.789062 380.910156 444.632812 376.363281 372.210938 374.546875 C 284.632812 372.726562 269.472656 374.546875 269.472656 386.363281 Z M 269.472656 386.363281 "/>
<path style=" stroke:none;fill-rule:nonzero;fill:rgb(16.862746%,24.313726%,30.19608%);fill-opacity:1;" d="M 269.472656 440.910156 C 269.472656 451.816406 282.105469 454.546875 332.632812 454.546875 C 383.15625 454.546875 395.789062 451.816406 395.789062 440.910156 C 395.789062 430 383.15625 427.273438 332.632812 427.273438 C 282.105469 427.273438 269.472656 430 269.472656 440.910156 Z M 269.472656 440.910156 "/>
<path style=" stroke:none;fill-rule:nonzero;fill:rgb(16.862746%,24.313726%,30.19608%);fill-opacity:1;" d="M 72.421875 542.726562 C 67.367188 555.453125 68.210938 556.363281 76.632812 548.183594 C 82.527344 541.816406 85.050781 534.546875 82.527344 531.816406 C 80 529.089844 74.949219 533.636719 72.421875 542.726562 Z M 72.421875 542.726562 "/>
<path style=" stroke:none;fill-rule:nonzero;fill:rgb(16.862746%,24.313726%,30.19608%);fill-opacity:1;" d="M 577.683594 543.636719 C 575.15625 548.183594 578.527344 551.816406 585.261719 551.816406 C 592 551.816406 595.367188 548.183594 592.84375 543.636719 C 590.316406 540 586.949219 536.363281 585.261719 536.363281 C 583.578125 536.363281 580.210938 540 577.683594 543.636719 Z M 577.683594 543.636719 "/>
</g>
</svg>
