<?xml version="1.0" encoding="UTF-8"?>
<svg xmlns="http://www.w3.org/2000/svg" xmlns:xlink="http://www.w3.org/1999/xlink" width="1152px" height="1152px" viewBox="0 0 1152 1152" version="1.1">
<g id="surface1">
<path style=" stroke:none;fill-rule:nonzero;fill:rgb(16.862746%,24.313726%,30.19608%);fill-opacity:1;" d="M 291.03125 124.363281 C 124.292969 237.269531 109.140625 250.363281 125.808594 278.183594 C 140.96875 306 134.910156 319.09375 83.371094 378 L 22.738281 445.09375 L 54.570312 471.269531 L 86.398438 499.09375 L 43.960938 580.90625 L 1.519531 664.363281 L 201.601562 796.90625 C 310.738281 868.90625 430.480469 944.183594 466.859375 963.816406 L 530.527344 998.183594 L 572.96875 965.453125 C 609.347656 936 633.601562 932.730469 751.832031 936 L 886.738281 940.90625 L 818.527344 980.183594 C 765.472656 1011.269531 720 1022.730469 619.960938 1027.636719 C 471.410156 1035.816406 433.519531 1021.09375 260.71875 883.636719 C 204.628906 839.453125 157.640625 806.730469 154.609375 810 C 140.96875 824.730469 204.628906 919.636719 272.839844 986.730469 C 363.789062 1075.09375 462.320312 1129.09375 524.460938 1127.453125 C 550.230469 1125.816406 557.808594 1122.546875 542.652344 1117.636719 C 500.210938 1106.183594 510.820312 1080 557.808594 1078.363281 C 601.769531 1078.363281 700.292969 1068.546875 750.320312 1058.730469 C 798.820312 1050.546875 910.988281 962.183594 903.410156 939.269531 C 898.859375 927.816406 907.960938 909.816406 921.601562 896.730469 C 945.851562 877.09375 945.851562 878.730469 924.628906 908.183594 C 906.441406 934.363281 909.472656 934.363281 941.308594 903.269531 C 977.679688 868.90625 982.230469 867.269531 1001.9375 895.09375 C 1015.578125 913.09375 1017.089844 918 1003.449219 909.816406 C 992.839844 903.269531 980.71875 908.183594 976.167969 922.90625 C 971.621094 937.636719 957.980469 949.09375 945.851562 949.09375 C 933.730469 949.09375 924.628906 957.269531 924.628906 967.09375 C 924.628906 975.269531 932.210938 978.546875 942.820312 972 C 953.429688 963.816406 954.949219 967.09375 948.882812 980.183594 C 941.308594 991.636719 927.660156 996.546875 917.050781 991.636719 C 906.441406 988.363281 892.800781 994.90625 888.25 1008 C 883.707031 1021.09375 865.519531 1030.90625 848.839844 1030.90625 C 832.167969 1030.90625 818.527344 1035.816406 818.527344 1042.363281 C 818.527344 1050.546875 797.308594 1068.546875 771.539062 1083.269531 C 747.28125 1099.636719 730.609375 1104.546875 735.160156 1096.363281 C 741.21875 1086.546875 726.0625 1089.816406 701.808594 1099.636719 L 659.371094 1120.90625 L 709.390625 1125.816406 C 823.070312 1137.269531 1009.519531 991.636719 1085.308594 831.269531 C 1133.808594 729.816406 1152 528.546875 1123.199219 414 C 1098.949219 317.453125 1020.128906 199.636719 932.210938 127.636719 C 844.292969 55.636719 682.109375 -4.90625 597.21875 3.269531 L 538.109375 8.183594 L 616.929688 36 C 716.96875 70.363281 747.28125 88.363281 850.359375 173.453125 C 964.039062 268.363281 1029.21875 378 1045.890625 510.546875 C 1061.050781 621.816406 1054.988281 651.269531 1032.25 584.183594 C 1024.671875 561.269531 1009.519531 538.363281 1001.9375 531.816406 C 989.808594 525.269531 989.808594 535.09375 1000.421875 564.546875 C 1023.160156 630 1018.609375 710.183594 985.261719 792 C 970.109375 832.90625 953.429688 867.269531 951.917969 867.269531 C 948.882812 867.269531 950.398438 762.546875 951.917969 633.269531 L 957.980469 399.269531 L 888.25 330.546875 L 818.527344 261.816406 L 375.917969 261.816406 L 381.980469 507.269531 L 386.527344 752.730469 L 315.28125 585.816406 C 275.871094 492.546875 227.371094 381.269531 207.660156 335.453125 L 171.28125 255.269531 L 316.800781 158.730469 C 450.191406 72 462.320312 65.453125 480.507812 91.636719 C 497.179688 117.816406 488.082031 126 394.109375 170.183594 C 336.507812 198 288 230.730469 288 240.546875 C 288 271.636719 312.25 266.730469 485.050781 189.816406 L 644.210938 119.453125 L 665.429688 162 C 686.652344 202.90625 709.390625 229.09375 730.609375 229.09375 C 735.160156 229.09375 726.0625 191.453125 707.871094 145.636719 C 673.011719 57.269531 674.527344 57.269531 565.390625 91.636719 C 539.621094 99.816406 525.980469 90 503.242188 50.730469 L 474.441406 0 Z M 970.109375 219.269531 L 1008 268.363281 L 961.011719 227.453125 C 935.242188 206.183594 917.050781 181.636719 920.082031 175.09375 C 924.628906 166.90625 929.179688 163.636719 930.691406 166.90625 C 930.691406 170.183594 948.882812 193.09375 970.109375 219.269531 Z M 1038.320312 310.90625 C 1053.472656 328.90625 1059.539062 343.636719 1051.960938 343.636719 C 1044.378906 343.636719 1029.21875 328.90625 1018.609375 310.90625 C 1008 292.90625 1001.9375 278.183594 1004.96875 278.183594 C 1008 278.183594 1023.160156 292.90625 1038.320312 310.90625 Z M 773.050781 335.453125 C 773.050781 392.730469 817.011719 441.816406 867.03125 441.816406 L 909.472656 441.816406 L 909.472656 883.636719 L 430.480469 883.636719 L 425.9375 589.09375 L 422.910156 294.546875 L 773.050781 294.546875 Z M 856.421875 360 C 883.707031 391.09375 882.191406 392.730469 851.871094 392.730469 C 829.140625 392.730469 818.527344 382.90625 818.527344 360 C 818.527344 342 821.558594 327.269531 823.070312 327.269531 C 826.109375 327.269531 841.261719 342 856.421875 360 Z M 257.679688 549.816406 C 257.679688 554.730469 281.9375 603.816406 312.25 659.453125 L 365.308594 760.90625 L 222.820312 597.269531 L 78.820312 433.636719 L 118.230469 389.453125 L 156.128906 343.636719 L 207.660156 441.816406 C 234.949219 495.816406 257.679688 544.90625 257.679688 549.816406 Z M 1080.757812 396 C 1094.398438 446.730469 1083.789062 450 1064.082031 400.90625 C 1054.988281 378 1051.960938 360 1059.539062 360 C 1067.117188 360 1076.210938 376.363281 1080.757812 396 Z M 248.589844 672.546875 C 318.320312 746.183594 378.949219 819.816406 383.492188 836.183594 C 388.039062 854.183594 389.558594 867.269531 386.527344 867.269531 C 380.460938 867.269531 74.269531 657.816406 63.660156 648 C 57.601562 641.453125 107.621094 540 116.71875 540 C 118.230469 540 177.347656 600.546875 248.589844 672.546875 Z M 1106.527344 605.453125 C 1106.527344 623.453125 1100.460938 638.183594 1091.371094 638.183594 C 1083.789062 638.183594 1076.210938 646.363281 1076.210938 656.183594 C 1076.210938 666 1085.308594 667.636719 1095.917969 659.453125 C 1105.011719 652.90625 1101.980469 669.269531 1085.308594 693.816406 C 1070.148438 720 1065.601562 734.730469 1076.210938 728.183594 C 1089.851562 718.363281 1089.851562 723.269531 1077.730469 751.09375 C 1067.117188 769.09375 1064.082031 785.453125 1068.628906 785.453125 C 1073.179688 785.453125 1064.082031 801.816406 1047.410156 821.453125 C 1030.738281 839.453125 1020.128906 862.363281 1026.191406 872.183594 C 1030.738281 880.363281 1026.191406 885.269531 1015.578125 880.363281 C 1003.449219 877.09375 991.328125 864 988.292969 850.90625 C 983.75 839.453125 988.292969 834.546875 998.910156 841.09375 C 1008 847.636719 1017.089844 844.363281 1017.089844 836.183594 C 1020.128906 811.636719 1026.191406 787.09375 1030.738281 780.546875 C 1032.25 778.90625 1036.800781 759.269531 1038.320312 736.363281 C 1045.890625 667.636719 1051.960938 648 1073.179688 625.09375 C 1083.789062 612 1088.339844 595.636719 1083.789062 587.453125 C 1077.730469 579.269531 1082.269531 572.730469 1089.851562 572.730469 C 1098.949219 572.730469 1106.527344 587.453125 1106.527344 605.453125 Z M 542.652344 927.816406 C 527.492188 931.09375 503.242188 931.09375 489.601562 927.816406 C 474.441406 922.90625 486.570312 919.636719 515.371094 919.636719 C 544.167969 919.636719 556.292969 922.90625 542.652344 927.816406 Z M 469.890625 1073.453125 C 469.890625 1076.730469 456.25 1073.453125 439.578125 1063.636719 C 422.910156 1053.816406 409.261719 1042.363281 409.261719 1037.453125 C 409.261719 1034.183594 422.910156 1037.453125 439.578125 1047.269531 C 456.25 1057.09375 469.890625 1068.546875 469.890625 1073.453125 Z M 469.890625 1073.453125 "/>
<path style=" stroke:none;fill-rule:nonzero;fill:rgb(16.862746%,24.313726%,30.19608%);fill-opacity:1;" d="M 485.050781 515.453125 C 485.050781 536.730469 512.339844 540 669.980469 536.730469 C 800.339844 533.453125 856.421875 525.269531 860.96875 510.546875 C 865.519531 495.816406 821.558594 490.90625 676.039062 490.90625 C 515.371094 490.90625 485.050781 494.183594 485.050781 515.453125 Z M 485.050781 515.453125 "/>
<path style=" stroke:none;fill-rule:nonzero;fill:rgb(16.862746%,24.313726%,30.19608%);fill-opacity:1;" d="M 489.601562 594 C 474.441406 621.816406 506.269531 626.730469 679.070312 625.09375 C 795.789062 623.453125 856.421875 616.90625 856.421875 605.453125 C 856.421875 584.183594 501.730469 572.730469 489.601562 594 Z M 489.601562 594 "/>
<path style=" stroke:none;fill-rule:nonzero;fill:rgb(16.862746%,24.313726%,30.19608%);fill-opacity:1;" d="M 485.050781 695.453125 C 485.050781 716.730469 515.371094 720 676.039062 720 C 821.558594 720 865.519531 715.09375 860.96875 698.730469 C 856.421875 685.636719 800.339844 677.453125 669.980469 674.183594 C 512.339844 670.90625 485.050781 674.183594 485.050781 695.453125 Z M 485.050781 695.453125 "/>
<path style=" stroke:none;fill-rule:nonzero;fill:rgb(16.862746%,24.313726%,30.19608%);fill-opacity:1;" d="M 485.050781 793.636719 C 485.050781 813.269531 507.789062 818.183594 598.738281 818.183594 C 689.679688 818.183594 712.421875 813.269531 712.421875 793.636719 C 712.421875 774 689.679688 769.09375 598.738281 769.09375 C 507.789062 769.09375 485.050781 774 485.050781 793.636719 Z M 485.050781 793.636719 "/>
<path style=" stroke:none;fill-rule:nonzero;fill:rgb(16.862746%,24.313726%,30.19608%);fill-opacity:1;" d="M 130.359375 976.90625 C 121.261719 999.816406 122.78125 1001.453125 137.9375 986.730469 C 148.550781 975.269531 153.089844 962.183594 148.550781 957.269531 C 144 952.363281 134.910156 960.546875 130.359375 976.90625 Z M 130.359375 976.90625 "/>
<path style=" stroke:none;fill-rule:nonzero;fill:rgb(16.862746%,24.313726%,30.19608%);fill-opacity:1;" d="M 1039.832031 978.546875 C 1035.28125 986.730469 1041.347656 993.269531 1053.472656 993.269531 C 1065.601562 993.269531 1071.660156 986.730469 1067.117188 978.546875 C 1062.570312 972 1056.507812 965.453125 1053.472656 965.453125 C 1050.441406 965.453125 1044.378906 972 1039.832031 978.546875 Z M 1039.832031 978.546875 "/>
</g>
</svg>
