<?xml version="1.0" encoding="UTF-8"?>
<svg xmlns="http://www.w3.org/2000/svg" xmlns:xlink="http://www.w3.org/1999/xlink" width="100px" height="100px" viewBox="0 0 100 100" version="1.1">
<g id="surface1">
<path style=" stroke:none;fill-rule:nonzero;fill:rgb(16.862746%,24.313726%,30.19608%);fill-opacity:1;" d="M 25.261719 10.796875 C 10.789062 20.597656 9.472656 21.734375 10.921875 24.148438 C 12.238281 26.5625 11.710938 27.699219 7.238281 32.8125 L 1.972656 38.636719 L 4.738281 40.910156 L 7.5 43.324219 L 3.816406 50.425781 L 0.132812 57.671875 L 17.5 69.175781 C 26.972656 75.425781 37.367188 81.960938 40.527344 83.664062 L 46.054688 86.648438 L 49.738281 83.808594 C 52.894531 81.25 55 80.964844 65.261719 81.25 L 76.972656 81.675781 L 71.054688 85.085938 C 66.445312 87.785156 62.5 88.777344 53.816406 89.203125 C 40.921875 89.914062 37.632812 88.636719 22.632812 76.703125 C 17.761719 72.871094 13.683594 70.027344 13.421875 70.3125 C 12.238281 71.589844 17.761719 79.828125 23.683594 85.652344 C 31.578125 93.324219 40.132812 98.011719 45.527344 97.871094 C 47.761719 97.726562 48.421875 97.441406 47.105469 97.015625 C 43.421875 96.023438 44.34375 93.75 48.421875 93.609375 C 52.238281 93.609375 60.789062 92.753906 65.132812 91.902344 C 69.34375 91.191406 79.078125 83.523438 78.421875 81.535156 C 78.027344 80.539062 78.816406 78.976562 80 77.839844 C 82.105469 76.136719 82.105469 76.277344 80.261719 78.835938 C 78.683594 81.109375 78.945312 81.109375 81.710938 78.410156 C 84.867188 75.425781 85.261719 75.285156 86.972656 77.699219 C 88.15625 79.261719 88.289062 79.6875 87.105469 78.976562 C 86.183594 78.410156 85.132812 78.835938 84.738281 80.113281 C 84.34375 81.390625 83.15625 82.386719 82.105469 82.386719 C 81.054688 82.386719 80.261719 83.097656 80.261719 83.949219 C 80.261719 84.660156 80.921875 84.941406 81.84375 84.375 C 82.761719 83.664062 82.894531 83.949219 82.367188 85.085938 C 81.710938 86.078125 80.527344 86.503906 79.605469 86.078125 C 78.683594 85.796875 77.5 86.363281 77.105469 87.5 C 76.710938 88.636719 75.132812 89.488281 73.683594 89.488281 C 72.238281 89.488281 71.054688 89.914062 71.054688 90.484375 C 71.054688 91.191406 69.210938 92.753906 66.972656 94.035156 C 64.867188 95.453125 63.421875 95.878906 63.816406 95.171875 C 64.34375 94.316406 63.027344 94.601562 60.921875 95.453125 L 57.238281 97.300781 L 61.578125 97.726562 C 71.445312 98.722656 87.632812 86.078125 94.210938 72.160156 C 98.421875 63.351562 100 45.878906 97.5 35.9375 C 95.394531 27.558594 88.554688 17.328125 80.921875 11.078125 C 73.289062 4.828125 59.210938 -0.425781 51.84375 0.285156 L 46.710938 0.710938 L 53.554688 3.125 C 62.238281 6.109375 64.867188 7.671875 73.816406 15.058594 C 83.683594 23.296875 89.34375 32.8125 90.789062 44.316406 C 92.105469 53.976562 91.578125 56.535156 89.605469 50.710938 C 88.945312 48.722656 87.632812 46.734375 86.972656 46.164062 C 85.921875 45.597656 85.921875 46.449219 86.84375 49.003906 C 88.816406 54.6875 88.421875 61.648438 85.527344 68.75 C 84.210938 72.300781 82.761719 75.285156 82.632812 75.285156 C 82.367188 75.285156 82.5 66.191406 82.632812 54.972656 L 83.15625 34.660156 L 77.105469 28.691406 L 71.054688 22.726562 L 32.632812 22.726562 L 33.15625 44.035156 L 33.554688 65.339844 L 27.367188 50.851562 C 23.945312 42.753906 19.738281 33.097656 18.027344 29.121094 L 14.867188 22.160156 L 27.5 13.777344 C 39.078125 6.25 40.132812 5.683594 41.710938 7.953125 C 43.15625 10.226562 42.367188 10.9375 34.210938 14.773438 C 29.210938 17.1875 25 20.027344 25 20.878906 C 25 23.578125 27.105469 23.152344 42.105469 16.476562 L 55.921875 10.371094 L 57.761719 14.0625 C 59.605469 17.613281 61.578125 19.886719 63.421875 19.886719 C 63.816406 19.886719 63.027344 16.621094 61.445312 12.640625 C 58.421875 4.972656 58.554688 4.972656 49.078125 7.953125 C 46.84375 8.664062 45.65625 7.8125 43.683594 4.402344 L 41.183594 0 Z M 84.210938 19.035156 L 87.5 23.296875 L 83.421875 19.746094 C 81.183594 17.898438 79.605469 15.765625 79.867188 15.199219 C 80.261719 14.488281 80.65625 14.203125 80.789062 14.488281 C 80.789062 14.773438 82.367188 16.761719 84.210938 19.035156 Z M 90.132812 26.988281 C 91.445312 28.550781 91.972656 29.828125 91.316406 29.828125 C 90.65625 29.828125 89.34375 28.550781 88.421875 26.988281 C 87.5 25.425781 86.972656 24.148438 87.238281 24.148438 C 87.5 24.148438 88.816406 25.425781 90.132812 26.988281 Z M 67.105469 29.121094 C 67.105469 34.089844 70.921875 38.351562 75.261719 38.351562 L 78.945312 38.351562 L 78.945312 76.703125 L 37.367188 76.703125 L 36.972656 51.136719 L 36.710938 25.566406 L 67.105469 25.566406 Z M 74.34375 31.25 C 76.710938 33.949219 76.578125 34.089844 73.945312 34.089844 C 71.972656 34.089844 71.054688 33.238281 71.054688 31.25 C 71.054688 29.6875 71.316406 28.410156 71.445312 28.410156 C 71.710938 28.410156 73.027344 29.6875 74.34375 31.25 Z M 22.367188 47.726562 C 22.367188 48.152344 24.472656 52.414062 27.105469 57.246094 L 31.710938 66.050781 L 19.34375 51.847656 L 6.84375 37.640625 L 10.261719 33.808594 L 13.554688 29.828125 L 18.027344 38.351562 C 20.394531 43.039062 22.367188 47.300781 22.367188 47.726562 Z M 93.816406 34.375 C 95 38.777344 94.078125 39.0625 92.367188 34.800781 C 91.578125 32.8125 91.316406 31.25 91.972656 31.25 C 92.632812 31.25 93.421875 32.671875 93.816406 34.375 Z M 21.578125 58.378906 C 27.632812 64.773438 32.894531 71.164062 33.289062 72.585938 C 33.683594 74.148438 33.816406 75.285156 33.554688 75.285156 C 33.027344 75.285156 6.445312 57.101562 5.527344 56.25 C 5 55.683594 9.34375 46.875 10.132812 46.875 C 10.261719 46.875 15.394531 52.128906 21.578125 58.378906 Z M 96.054688 52.558594 C 96.054688 54.121094 95.527344 55.398438 94.738281 55.398438 C 94.078125 55.398438 93.421875 56.109375 93.421875 56.960938 C 93.421875 57.8125 94.210938 57.953125 95.132812 57.246094 C 95.921875 56.675781 95.65625 58.097656 94.210938 60.226562 C 92.894531 62.5 92.5 63.777344 93.421875 63.210938 C 94.605469 62.359375 94.605469 62.785156 93.554688 65.199219 C 92.632812 66.761719 92.367188 68.183594 92.761719 68.183594 C 93.15625 68.183594 92.367188 69.601562 90.921875 71.308594 C 89.472656 72.871094 88.554688 74.859375 89.078125 75.710938 C 89.472656 76.421875 89.078125 76.847656 88.15625 76.421875 C 87.105469 76.136719 86.054688 75 85.789062 73.863281 C 85.394531 72.871094 85.789062 72.441406 86.710938 73.011719 C 87.5 73.578125 88.289062 73.296875 88.289062 72.585938 C 88.554688 70.453125 89.078125 68.324219 89.472656 67.753906 C 89.605469 67.613281 90 65.910156 90.132812 63.921875 C 90.789062 57.953125 91.316406 56.25 93.15625 54.261719 C 94.078125 53.125 94.472656 51.703125 94.078125 50.996094 C 93.554688 50.285156 93.945312 49.714844 94.605469 49.714844 C 95.394531 49.714844 96.054688 50.996094 96.054688 52.558594 Z M 47.105469 80.539062 C 45.789062 80.824219 43.683594 80.824219 42.5 80.539062 C 41.183594 80.113281 42.238281 79.828125 44.738281 79.828125 C 47.238281 79.828125 48.289062 80.113281 47.105469 80.539062 Z M 40.789062 93.183594 C 40.789062 93.464844 39.605469 93.183594 38.15625 92.328125 C 36.710938 91.476562 35.527344 90.484375 35.527344 90.058594 C 35.527344 89.773438 36.710938 90.058594 38.15625 90.910156 C 39.605469 91.761719 40.789062 92.753906 40.789062 93.183594 Z M 40.789062 93.183594 "/>
<path style=" stroke:none;fill-rule:nonzero;fill:rgb(16.862746%,24.313726%,30.19608%);fill-opacity:1;" d="M 42.105469 44.746094 C 42.105469 46.589844 44.472656 46.875 58.15625 46.589844 C 69.472656 46.308594 74.34375 45.597656 74.738281 44.316406 C 75.132812 43.039062 71.316406 42.613281 58.683594 42.613281 C 44.738281 42.613281 42.105469 42.898438 42.105469 44.746094 Z M 42.105469 44.746094 "/>
<path style=" stroke:none;fill-rule:nonzero;fill:rgb(16.862746%,24.313726%,30.19608%);fill-opacity:1;" d="M 42.5 51.5625 C 41.183594 53.976562 43.945312 54.402344 58.945312 54.261719 C 69.078125 54.121094 74.34375 53.550781 74.34375 52.558594 C 74.34375 50.710938 43.554688 49.714844 42.5 51.5625 Z M 42.5 51.5625 "/>
<path style=" stroke:none;fill-rule:nonzero;fill:rgb(16.862746%,24.313726%,30.19608%);fill-opacity:1;" d="M 42.105469 60.371094 C 42.105469 62.214844 44.738281 62.5 58.683594 62.5 C 71.316406 62.5 75.132812 62.074219 74.738281 60.652344 C 74.34375 59.515625 69.472656 58.808594 58.15625 58.523438 C 44.472656 58.238281 42.105469 58.523438 42.105469 60.371094 Z M 42.105469 60.371094 "/>
<path style=" stroke:none;fill-rule:nonzero;fill:rgb(16.862746%,24.313726%,30.19608%);fill-opacity:1;" d="M 42.105469 68.890625 C 42.105469 70.597656 44.078125 71.023438 51.972656 71.023438 C 59.867188 71.023438 61.84375 70.597656 61.84375 68.890625 C 61.84375 67.1875 59.867188 66.761719 51.972656 66.761719 C 44.078125 66.761719 42.105469 67.1875 42.105469 68.890625 Z M 42.105469 68.890625 "/>
<path style=" stroke:none;fill-rule:nonzero;fill:rgb(16.862746%,24.313726%,30.19608%);fill-opacity:1;" d="M 11.316406 84.800781 C 10.527344 86.789062 10.65625 86.933594 11.972656 85.652344 C 12.894531 84.660156 13.289062 83.523438 12.894531 83.097656 C 12.5 82.671875 11.710938 83.378906 11.316406 84.800781 Z M 11.316406 84.800781 "/>
<path style=" stroke:none;fill-rule:nonzero;fill:rgb(16.862746%,24.313726%,30.19608%);fill-opacity:1;" d="M 90.261719 84.941406 C 89.867188 85.652344 90.394531 86.222656 91.445312 86.222656 C 92.5 86.222656 93.027344 85.652344 92.632812 84.941406 C 92.238281 84.375 91.710938 83.808594 91.445312 83.808594 C 91.183594 83.808594 90.65625 84.375 90.261719 84.941406 Z M 90.261719 84.941406 "/>
</g>
</svg>
